solid 
facet normal -1.0 0.0 0.0
outer loop
vertex -5.0 -10.0 15.0
vertex -5.0 10.0 15.0
vertex -5.0 -10.0 -15.0
endloop
endfacet
facet normal 0.0 -1.0 0.0
outer loop
vertex 5.0 -10.0 -15.0
vertex -5.0 -10.0 15.0
vertex -5.0 -10.0 -15.0
endloop
endfacet
facet normal -1.0 0.0 0.0
outer loop
vertex -5.0 -10.0 -15.0
vertex -5.0 10.0 15.0
vertex -5.0 10.0 -15.0
endloop
endfacet
facet normal 0.0 0.0 -1.0
outer loop
vertex -5.0 10.0 -15.0
vertex 5.0 -10.0 -15.0
vertex -5.0 -10.0 -15.0
endloop
endfacet
facet normal 0.0 0.0 1.0
outer loop
vertex -5.0 -10.0 15.0
vertex 5.0 10.0 15.0
vertex -5.0 10.0 15.0
endloop
endfacet
facet normal 0.0 -1.0 0.0
outer loop
vertex 5.0 -10.0 15.0
vertex -5.0 -10.0 15.0
vertex 5.0 -10.0 -15.0
endloop
endfacet
facet normal 0.0 0.0 1.0
outer loop
vertex 5.0 -10.0 15.0
vertex 5.0 10.0 15.0
vertex -5.0 -10.0 15.0
endloop
endfacet
facet normal 0.0 1.0 0.0
outer loop
vertex -5.0 10.0 15.0
vertex 5.0 10.0 15.0
vertex -5.0 10.0 -15.0
endloop
endfacet
facet normal 0.0 0.0 -1.0
outer loop
vertex 5.0 10.0 -15.0
vertex 5.0 -10.0 -15.0
vertex -5.0 10.0 -15.0
endloop
endfacet
facet normal 0.0 1.0 0.0
outer loop
vertex -5.0 10.0 -15.0
vertex 5.0 10.0 15.0
vertex 5.0 10.0 -15.0
endloop
endfacet
facet normal 1.0 0.0 0.0
outer loop
vertex 5.0 10.0 -15.0
vertex 5.0 -10.0 15.0
vertex 5.0 -10.0 -15.0
endloop
endfacet
facet normal 1.0 0.0 0.0
outer loop
vertex 5.0 10.0 15.0
vertex 5.0 -10.0 15.0
vertex 5.0 10.0 -15.0
endloop
endfacet

endsolid
